#Comment line ignore any data following # character 
#Hierarchical Translation and Rotation (.htr) file 
[Header]	
#Header keywords are followed by a single value 
FileType HTR		#Single word string
DataType HTRS		#Translation followed by rotation and scale data
FileVersion 1		#integer
NumSegments 64		#integer
NumFrames 3		#integer
DataFrameRate 30		#integer, data frame rate in this file
EulerRotationOrder ZYX
CalibrationUnits mm
RotationUnits Degrees
GlobalAxisofGravity Y
BoneLengthAxis Y
ScaleFactor 1.00
[SegmentNames&Hierarchy]
#CHILD	PARENT
Pinger_Root GLOBAL
Pelvis Pinger_Root
L_Hip Pelvis
R_Hip Pelvis
Rear_Leg01 Pelvis
Spine1 Pelvis
L_Leg01 L_Hip
L_Leg02 L_Leg01
L_Leg03 L_Leg02
L_Foot L_Leg03
L_Toe1_01 L_Foot
L_Toe2_01 L_Foot
L_Toe3_01 L_Foot
planeAlignerLeft L_Foot
L_Toe1_02 L_Toe1_01
L_Toe1_03 L_Toe1_02
L_Toe2_02 L_Toe2_01
L_Toe2_03 L_Toe2_02
L_Toe3_02 L_Toe3_01
L_Toe3_03 L_Toe3_02
planeLockWeightLeft planeAlignerLeft
R_Leg01 R_Hip
R_Leg02 R_Leg01
R_Leg03 R_Leg02
R_Foot R_Leg03
planeAlignerRight R_Foot
R_Toe1_01 R_Foot
R_Toe2_01 R_Foot
R_Toe3_01 R_Foot
planeLockWeightRight planeAlignerRight
R_Toe1_02 R_Toe1_01
R_Toe1_03 R_Toe1_02
R_Toe2_02 R_Toe2_01
R_Toe2_03 R_Toe2_02
R_Toe3_02 R_Toe3_01
R_Toe3_03 R_Toe3_02
Rear_Leg02 Rear_Leg01
Rear_Leg03 Rear_Leg02
Rear_Leg04 Rear_Leg03
Rear_Foot Rear_Leg04
planeAlignerCenter Rear_Foot
Rear_Toe1_01 Rear_Foot
Rear_Toe2_01 Rear_Foot
Rear_Toe3_01 Rear_Foot
planeLockWeightCenter planeAlignerCenter
Rear_Toe1_02 Rear_Toe1_01
Rear_Toe1_03 Rear_Toe1_02
Rear_Toe2_02 Rear_Toe2_01
Rear_Toe2_03 Rear_Toe2_02
Rear_Toe3_02 Rear_Toe3_01
Rear_Toe3_03 Rear_Toe3_02
Back_Bone Spine1
Head Spine1
Motor_Bone Back_Bone
Ping_Mechanism Back_Bone
BN_LookIK Head
bottomMouth Head
L_Mouth01 Head
L_mouthFront Head
mouthGun Head
R_Mouth01 Head
R_mouthFront Head
TopMouth Head
weapon_bone Head
[BasePosition]
#SegmentName Tx, Ty, Tz, Rx, Ry, Rz, BoneLength
Pinger_Root 0.000000 0.000000 0.000000 -90.000000 0.000000 0.000000 10.000000 
Pelvis 0.000000 0.000000 0.000000 0.000000 0.000000 0.000000 10.000000 
L_Hip 0.000000 0.000000 0.000000 0.000000 0.000000 0.000000 10.000000 
R_Hip 0.000000 0.000000 0.000000 0.000000 0.000000 0.000000 10.000000 
Rear_Leg01 0.000000 0.000000 0.000000 0.000000 0.000000 0.000000 10.000000 
Spine1 0.000000 0.000000 0.000000 0.000000 0.000000 0.000000 10.000000 
L_Leg01 0.000000 0.000000 0.000000 0.000000 0.000000 0.000000 10.000000 
L_Leg02 0.000000 0.000000 0.000000 0.000000 0.000000 0.000000 10.000000 
L_Leg03 0.000000 0.000000 0.000000 0.000000 0.000000 0.000000 10.000000 
L_Foot 0.000000 0.000000 0.000000 0.000000 0.000000 0.000000 10.000000 
L_Toe1_01 0.000000 0.000000 0.000000 0.000000 0.000000 0.000000 10.000000 
L_Toe2_01 0.000000 0.000000 0.000000 0.000000 0.000000 0.000000 10.000000 
L_Toe3_01 0.000000 0.000000 0.000000 0.000000 0.000000 0.000000 10.000000 
planeAlignerLeft 0.000000 0.000000 0.000000 0.000000 0.000000 0.000000 10.000000 
L_Toe1_02 0.000000 0.000000 0.000000 0.000000 0.000000 0.000000 10.000000 
L_Toe1_03 0.000000 0.000000 0.000000 0.000000 0.000000 0.000000 10.000000 
L_Toe2_02 0.000000 0.000000 0.000000 0.000000 0.000000 0.000000 10.000000 
L_Toe2_03 0.000000 0.000000 0.000000 0.000000 0.000000 0.000000 10.000000 
L_Toe3_02 0.000000 0.000000 0.000000 0.000000 0.000000 0.000000 10.000000 
L_Toe3_03 0.000000 0.000000 0.000000 0.000000 0.000000 0.000000 10.000000 
planeLockWeightLeft 0.000000 0.000000 0.000000 0.000000 0.000000 0.000000 10.000000 
R_Leg01 0.000000 0.000000 0.000000 0.000000 0.000000 0.000000 10.000000 
R_Leg02 0.000000 0.000000 0.000000 0.000000 0.000000 0.000000 10.000000 
R_Leg03 0.000000 0.000000 0.000000 0.000000 0.000000 0.000000 10.000000 
R_Foot 0.000000 0.000000 0.000000 0.000000 0.000000 0.000000 10.000000 
planeAlignerRight 0.000000 0.000000 0.000000 0.000000 0.000000 0.000000 10.000000 
R_Toe1_01 0.000000 0.000000 0.000000 0.000000 0.000000 0.000000 10.000000 
R_Toe2_01 0.000000 0.000000 0.000000 0.000000 0.000000 0.000000 10.000000 
R_Toe3_01 0.000000 0.000000 0.000000 0.000000 0.000000 0.000000 10.000000 
planeLockWeightRight 0.000000 0.000000 0.000000 0.000000 0.000000 0.000000 10.000000 
R_Toe1_02 0.000000 0.000000 0.000000 0.000000 0.000000 0.000000 10.000000 
R_Toe1_03 0.000000 0.000000 0.000000 0.000000 0.000000 0.000000 10.000000 
R_Toe2_02 0.000000 0.000000 0.000000 0.000000 0.000000 0.000000 10.000000 
R_Toe2_03 0.000000 0.000000 0.000000 0.000000 0.000000 0.000000 10.000000 
R_Toe3_02 0.000000 0.000000 0.000000 0.000000 0.000000 0.000000 10.000000 
R_Toe3_03 0.000000 0.000000 0.000000 0.000000 0.000000 0.000000 10.000000 
Rear_Leg02 0.000000 0.000000 0.000000 0.000000 0.000000 0.000000 10.000000 
Rear_Leg03 0.000000 0.000000 0.000000 0.000000 0.000000 0.000000 10.000000 
Rear_Leg04 0.000000 0.000000 0.000000 0.000000 0.000000 0.000000 10.000000 
Rear_Foot 0.000000 0.000000 0.000000 0.000000 0.000000 0.000000 10.000000 
planeAlignerCenter 0.000000 0.000000 0.000000 0.000000 0.000000 0.000000 10.000000 
Rear_Toe1_01 0.000000 0.000000 0.000000 0.000000 0.000000 0.000000 10.000000 
Rear_Toe2_01 0.000000 0.000000 0.000000 0.000000 0.000000 0.000000 10.000000 
Rear_Toe3_01 0.000000 0.000000 0.000000 0.000000 0.000000 0.000000 10.000000 
planeLockWeightCenter 0.000000 0.000000 0.000000 0.000000 0.000000 0.000000 10.000000 
Rear_Toe1_02 0.000000 0.000000 0.000000 0.000000 0.000000 0.000000 10.000000 
Rear_Toe1_03 0.000000 0.000000 0.000000 0.000000 0.000000 0.000000 10.000000 
Rear_Toe2_02 0.000000 0.000000 0.000000 0.000000 0.000000 0.000000 10.000000 
Rear_Toe2_03 0.000000 0.000000 0.000000 0.000000 0.000000 0.000000 10.000000 
Rear_Toe3_02 0.000000 0.000000 0.000000 0.000000 0.000000 0.000000 10.000000 
Rear_Toe3_03 0.000000 0.000000 0.000000 0.000000 0.000000 0.000000 10.000000 
Back_Bone 0.000000 0.000000 0.000000 0.000000 0.000000 0.000000 10.000000 
Head 0.000000 0.000000 0.000000 0.000000 0.000000 0.000000 10.000000 
Motor_Bone 0.000000 0.000000 0.000000 0.000000 0.000000 0.000000 10.000000 
Ping_Mechanism 0.000000 0.000000 0.000000 0.000000 0.000000 0.000000 10.000000 
BN_LookIK 0.000000 0.000000 0.000000 0.000000 0.000000 0.000000 10.000000 
bottomMouth 0.000000 0.000000 0.000000 0.000000 0.000000 0.000000 10.000000 
L_Mouth01 0.000000 0.000000 0.000000 0.000000 0.000000 0.000000 10.000000 
L_mouthFront 0.000000 0.000000 0.000000 0.000000 0.000000 0.000000 10.000000 
mouthGun 0.000000 0.000000 0.000000 0.000000 0.000000 0.000000 10.000000 
R_Mouth01 0.000000 0.000000 0.000000 0.000000 0.000000 0.000000 10.000000 
R_mouthFront 0.000000 0.000000 0.000000 0.000000 0.000000 0.000000 10.000000 
TopMouth 0.000000 0.000000 0.000000 0.000000 0.000000 0.000000 10.000000 
weapon_bone 0.000000 0.000000 0.000000 0.000000 0.000000 0.000000 10.000000 
#Beginning of Data. Separated by tabs
#Fr	Tx	Ty	Tz	Rx	Ry	Rz	SF
[Pinger_Root]
31 -0.000019 2405.247803 0.000000 -0.000075 -0.000000 -0.000020 2405.247803
32 -0.000020 2438.425293 0.000000 -0.000075 -0.000000 -0.000020 2438.425293
33 -0.000020 2464.839355 0.000000 -0.000075 -0.000000 -0.000020 2464.839355
[Pelvis]
31 -280.684723 971.125549 4538.637207 28.797174 -77.822327 -5.334858 4649.849121
32 -272.721741 980.233154 4419.822266 20.796883 -80.720848 3.261497 4535.422852
33 -260.624786 991.198425 4323.153320 5.891825 -83.880089 18.469294 4442.978516
[L_Hip]
31 5.766392 125.831482 872.656799 -178.253311 -81.787712 87.381248 881.701050
32 5.766392 125.831482 872.656799 -178.253311 -81.787758 87.381340 881.701050
33 5.766392 125.831482 872.656799 -178.253311 -81.787758 87.381340 881.701050
[R_Hip]
31 5.765438 125.836372 -872.654907 -1.746713 81.787666 87.381149 881.699829
32 5.765438 125.836372 -872.654907 -1.746690 81.787712 87.381248 881.699829
33 5.765438 125.836372 -872.654907 -1.746690 81.787712 87.381248 881.699829
[Rear_Leg01]
31 -192.298416 -925.602966 -0.001907 165.503159 0.288703 -162.848648 945.367432
32 -192.298416 -925.602966 -0.001907 166.701080 -2.493519 -164.908066 945.367432
33 -192.298416 -925.602966 -0.001907 167.487564 -5.676474 -167.221634 945.367432
[Spine1]
31 290.604584 5.007505 0.000477 -28.043427 2.673337 33.362167 290.647736
32 290.604584 5.007505 0.000477 -27.597830 4.744080 31.009941 290.647736
33 290.604584 5.007505 0.000477 -26.610235 7.217617 28.672382 290.647736
[L_Leg01]
31 761.932007 -0.002384 -0.069261 109.062416 -15.973658 -97.073990 761.932068
32 761.932007 -0.002384 -0.069261 112.125061 -24.633209 -96.343056 761.932068
33 761.932007 -0.002384 -0.069261 110.507523 -34.024021 -92.287430 761.932068
[L_Leg02]
31 1441.140503 -0.000954 -0.000715 0.852953 -0.127258 -120.200691 1441.140503
32 1441.140503 -0.000954 -0.000715 2.659887 -0.243539 -132.021072 1441.140503
33 1441.140503 -0.000954 -0.000715 4.931696 0.265606 -142.076126 1441.140503
[L_Leg03]
31 1686.963989 -0.000715 -0.000954 -0.004563 0.000877 111.756187 1686.963989
32 1686.963989 -0.000715 -0.000954 -0.023324 0.012711 116.651344 1686.963989
33 1686.963989 -0.000715 -0.000954 -0.057771 0.029685 125.803452 1686.963989
[L_Foot]
31 3041.570068 -30.715107 11.297464 -30.216169 13.597028 38.352901 3041.746094
32 3041.570068 -30.715107 11.297464 -31.647570 12.529098 36.347355 3041.746094
33 3041.570068 -30.715107 11.297464 -28.923683 11.120024 33.079029 3041.746094
[L_Toe1_01]
31 -188.216690 -224.732346 -21.137953 88.108658 0.544543 -116.326904 293.899567
32 -188.216690 -224.732346 -21.137953 88.150047 0.352826 -112.500519 293.899567
33 -188.216690 -224.732346 -21.137953 88.210335 -0.525928 -126.088821 293.899567
[L_Toe2_01]
31 200.746536 -219.926590 148.838394 -74.818275 -9.633010 -59.898506 332.896027
32 200.746536 -219.926590 148.838394 -74.339203 -8.373983 -63.772774 332.896027
33 200.746536 -219.926590 148.838394 -73.702553 -6.553280 -69.213615 332.896027
[L_Toe3_01]
31 188.832520 -219.859131 -191.078659 -109.552101 11.812427 -61.727028 347.140900
32 188.832520 -219.859131 -191.078659 -110.104179 10.247955 -65.399994 347.140900
33 188.832520 -219.859131 -191.078659 -110.815254 7.970121 -70.630630 347.140900
[planeAlignerLeft]
31 -90.740044 -814.647156 7.196492 0.000000 -89.909348 -90.081337 819.716736
32 -79.944405 -812.397583 7.750392 0.000000 -89.909348 -90.084007 816.358398
33 -62.510117 -805.418152 7.078406 0.000000 -89.907219 -90.086662 807.871277
[L_Toe1_02]
31 413.761139 0.000477 0.000000 0.001661 0.065952 0.001661 413.761139
32 413.761139 0.000477 0.000000 0.001412 -22.476740 0.001412 413.761139
33 413.761139 0.000477 0.000000 0.001396 -24.467121 0.001396 413.761139
[L_Toe1_03]
31 464.317322 0.000358 -0.000089 0.001673 -0.448396 -0.003292 464.317322
32 464.317322 0.000358 -0.000089 0.000847 30.791559 -0.003174 464.317322
33 464.317322 0.000358 -0.000089 0.007020 70.753441 0.007020 464.317322
[L_Toe2_02]
31 342.235809 -0.000477 0.000238 0.001184 -74.562111 0.001184 342.235809
32 342.235809 -0.000477 0.000238 0.001182 -76.444901 0.001182 342.235809
33 342.235809 -0.000477 0.000238 0.001180 -77.690437 0.001180 342.235809
[L_Toe2_03]
31 420.210846 -0.000715 0.000000 -179.956909 88.530861 -179.953415 420.210846
32 420.210846 -0.000715 0.000000 -179.993210 82.291634 -179.989700 420.210846
33 420.210846 -0.000715 0.000000 -179.996536 77.371246 -179.993011 420.210846
[L_Toe3_02]
31 329.270111 0.000954 0.000000 0.001180 -78.460884 0.001180 329.270111
32 329.270111 0.000954 0.000000 0.001178 -80.156754 0.001178 329.270111
33 329.270111 0.000954 0.000000 0.001177 -81.305656 0.001177 329.270111
[L_Toe3_03]
31 439.137451 -0.001907 0.000954 -179.986115 85.786713 -179.982620 439.137451
32 439.137451 -0.001907 0.000954 -179.995239 79.877045 -179.991730 439.137451
33 439.137451 -0.001907 0.000954 -179.997299 75.182968 -179.993774 439.137451
[planeLockWeightLeft]
31 104.002281 -0.000038 -0.000305 -0.011826 -0.004376 0.005620 104.002281
32 0.001095 -0.000038 -0.000305 -0.011826 -0.004376 0.005620 0.001138
33 0.000277 -0.000033 -0.000300 -0.011826 -0.004376 0.005620 0.000410
[R_Leg01]
31 761.455627 -0.001907 -0.000358 121.188049 -14.519109 34.099075 761.455688
32 761.455627 -0.001907 -0.000358 124.716766 -15.287477 33.555706 761.455688
33 761.455627 -0.001907 -0.000358 128.033142 -15.186563 34.723095 761.455688
[R_Leg02]
31 1441.140625 0.000000 -0.000238 -0.099936 -0.009922 -126.815224 1441.140625
32 1441.140625 0.000000 -0.000238 -0.176068 -0.007122 -130.056641 1441.140625
33 1441.140625 0.000000 -0.000238 -0.224694 -0.008659 -131.275696 1441.140625
[R_Leg03]
31 1686.963989 0.000954 0.001431 -0.015829 0.004549 105.791397 1686.963989
32 1686.963989 0.000954 0.001431 -0.011511 0.001726 107.059700 1686.963989
33 1686.963989 0.000954 0.001431 -0.005925 -0.000210 108.617149 1686.963989
[R_Foot]
31 3041.560059 -30.531288 -11.204481 27.893764 -14.376470 58.354786 3041.734131
32 3041.560059 -30.531288 -11.204481 28.299286 -12.937939 59.673008 3041.734131
33 3041.560059 -30.531288 -11.204481 28.491098 -11.836889 60.399082 3041.734131
[planeAlignerRight]
31 -140.294220 -575.688904 -190.614609 0.000000 -89.911530 -90.062187 622.442017
32 -129.376755 -581.028503 -214.733017 0.000000 -89.903091 -90.064079 632.805481
33 -118.459267 -586.368225 -238.851395 0.000000 -89.899132 -90.065979 644.135254
[R_Toe1_01]
31 -188.383347 -224.864899 21.052242 90.937958 4.689309 -156.935654 294.101532
32 -188.383347 -224.864899 21.052242 90.946648 5.836442 -157.047882 294.101532
33 -188.383347 -224.864899 21.052242 90.953094 6.983590 -157.160172 294.101532
[R_Toe2_01]
31 200.637817 -220.002121 -148.787384 -100.963860 11.414899 -41.254189 332.857574
32 200.637817 -220.002121 -148.787384 -101.377365 12.537517 -42.030315 332.857574
33 200.637817 -220.002121 -148.787384 -101.861053 13.456967 -43.008888 332.857574
[R_Toe3_01]
31 188.606735 -220.092957 191.126343 -65.605652 -38.724159 -55.066532 347.192566
32 188.606735 -220.092957 191.126343 -66.676956 -37.501995 -53.943958 347.192566
33 188.606735 -220.092957 191.126343 -67.417747 -36.019138 -53.294777 347.192566
[planeLockWeightRight]
31 1000.000000 0.000305 -0.000430 -0.011823 -0.004379 -0.000027 1000.000000
32 1000.000000 0.000305 -0.000430 -0.011823 -0.004379 -0.000027 1000.000000
33 1000.000000 0.000305 -0.000430 -0.011823 -0.004379 -0.000027 1000.000000
[R_Toe1_02]
31 413.762085 0.000477 -0.000119 0.001389 -25.390831 0.001389 413.762085
32 413.762085 0.000477 -0.000119 0.001387 -25.533667 0.001387 413.762085
33 413.762085 0.000477 -0.000119 0.001386 -25.676504 0.001386 413.762085
[R_Toe1_03]
31 464.317810 0.000000 0.001088 0.002961 43.305805 0.002961 464.317810
32 464.317810 0.000000 0.001088 0.003090 45.343071 0.003090 464.317810
33 464.317810 0.000000 0.001088 0.003230 47.380966 0.003230 464.317810
[R_Toe2_02]
31 342.234741 -0.000954 0.000238 -0.002337 -77.569870 -0.002337 342.234741
32 342.234741 -0.000954 0.000238 -0.002339 -76.768593 -0.002339 342.234741
33 342.234741 -0.000954 0.000238 -0.002341 -75.967262 -0.002341 342.234741
[R_Toe2_03]
31 420.210846 0.000715 -0.000268 -179.993088 77.200226 -179.996613 420.210846
32 420.210846 0.000715 -0.000268 -179.991562 80.141640 -179.995056 420.210846
33 420.210846 0.000715 -0.000268 -179.987946 83.601997 -179.991455 420.210846
[R_Toe3_02]
31 329.270355 -0.000477 -0.000954 0.001176 -82.807724 0.001176 329.270355
32 329.270355 -0.000477 -0.000954 0.001176 -83.015373 0.001176 329.270355
33 329.270355 -0.000477 -0.000954 0.001176 -83.222977 0.001176 329.270355
[R_Toe3_03]
31 439.137939 0.000238 0.001431 -179.998932 66.796463 -179.995361 439.137939
32 439.137939 0.000238 0.001431 -179.999100 65.346878 -179.995529 439.137939
33 439.137939 0.000238 0.001431 -179.999191 64.590576 -179.995590 439.137939
[Rear_Leg02]
31 1162.777710 -0.029802 0.005960 -43.163662 11.673607 -176.185059 1162.777710
32 1162.777710 -0.029802 0.005960 -44.254883 9.291367 -178.924194 1162.777710
33 1162.777710 -0.029802 0.005960 -45.006851 7.870116 179.576599 1162.777710
[Rear_Leg03]
31 607.192505 -0.013351 -0.073195 0.009897 -0.006181 80.329994 607.192505
32 607.192505 -0.013351 -0.073195 0.009880 -0.006208 80.634506 607.192505
33 607.192505 -0.013351 -0.073195 0.009864 -0.006234 80.939018 607.192505
[Rear_Leg04]
31 995.874512 -0.020504 -0.011921 -0.043547 -0.013631 105.117729 995.874573
32 995.874512 -0.020504 -0.011921 -0.042360 -0.014681 107.587700 995.874573
33 995.874512 -0.020504 -0.011921 -0.042553 -0.014112 109.124779 995.874573
[Rear_Foot]
31 3096.176270 -0.067472 -0.041425 86.862976 47.912624 -93.621078 3096.176270
32 3096.176270 -0.067472 -0.041425 86.621635 47.479881 -92.281387 3096.176270
33 3096.176270 -0.067472 -0.041425 86.456520 47.153709 -91.224190 3096.176270
[planeAlignerCenter]
31 12.690493 57.475456 -796.172729 0.001823 -0.001485 168.341293 798.345459
32 11.857726 61.840973 -786.846985 0.001804 -0.001507 169.762695 789.362427
33 11.024960 66.206482 -777.521179 0.001784 -0.001529 171.183441 780.412781
[Rear_Toe1_01]
31 0.653352 83.966492 -371.173737 -0.337879 27.639786 77.466194 380.553192
32 0.653352 83.966492 -371.173737 -0.296278 27.212126 79.047356 380.553192
33 0.653352 83.966492 -371.173737 -0.219166 26.629559 80.527313 380.553192
[Rear_Toe2_01]
31 178.200760 -294.826019 -362.060547 -2.407717 52.602531 -87.734528 499.765686
32 178.200760 -294.826019 -362.060547 -1.899301 52.081192 -85.476379 499.765686
33 178.200760 -294.826019 -362.060547 -1.429974 51.547760 -83.250748 499.765686
[Rear_Toe3_01]
31 -153.359680 -308.780914 -362.060852 -4.645272 52.678871 -130.074844 499.952881
32 -153.359680 -308.780914 -362.060852 -4.294570 52.300156 -128.013824 499.952881
33 -153.359680 -308.780914 -362.060852 -3.836346 51.699650 -125.961586 499.952881
[planeLockWeightCenter]
31 1000.000366 0.000561 -0.000101 -0.011814 -0.004373 -0.000015 1000.000366
32 1000.000366 0.000569 -0.000101 -0.011814 -0.004373 -0.000015 1000.000366
33 1000.000366 0.000577 -0.000100 -0.011814 -0.004373 -0.000015 1000.000366
[Rear_Toe1_02]
31 379.707825 0.194073 0.000477 -0.004349 -33.554916 0.003045 379.707855
32 379.707825 0.194073 0.000477 -0.004349 -33.553928 0.003045 379.707855
33 379.707825 0.194073 0.000477 -0.004349 -33.552948 0.003045 379.707855
[Rear_Toe1_03]
31 500.129700 0.165701 0.000119 -0.004828 68.257416 -0.001267 500.129761
32 500.129700 0.165701 0.000119 -0.004848 68.408432 -0.001289 500.129761
33 500.129700 0.165701 0.000119 -0.004869 68.559418 -0.001310 500.129761
[Rear_Toe2_02]
31 340.494507 0.000238 -0.000954 0.001179 -78.767685 0.001179 340.494507
32 340.494507 0.000238 -0.000954 0.001178 -79.733017 0.001178 340.494507
33 340.494507 0.000238 -0.000954 0.001178 -80.698448 0.001178 340.494507
[Rear_Toe2_03]
31 433.103577 0.000000 0.000238 0.026794 84.971413 0.026794 433.103546
32 433.103577 0.000000 0.000238 0.047965 87.193420 0.047965 433.103546
33 433.103577 0.000000 0.000238 0.228584 89.410828 0.228584 433.103546
[Rear_Toe3_02]
31 340.494141 -0.000358 -0.000477 0.001178 -80.048454 0.001178 340.494171
32 340.494141 -0.000358 -0.000477 0.001177 -80.935226 0.001177 340.494171
33 340.494141 -0.000358 -0.000477 0.001177 -81.821663 0.001177 340.494171
[Rear_Toe3_03]
31 433.103577 0.001431 -0.000238 0.003202 87.838707 0.005392 433.103546
32 433.103577 0.001431 -0.000238 0.000000 89.559875 0.002625 433.103546
33 433.103577 0.001431 -0.000238 -179.969635 88.718391 -179.966583 433.103546
[Back_Bone]
31 1312.175781 -701.934692 0.000954 -0.889938 0.611998 -86.292229 1488.125488
32 1312.175781 -701.934692 0.000954 -1.455277 1.389246 -87.399765 1488.125488
33 1312.175781 -701.934692 0.000954 -1.927890 1.940066 -87.843315 1488.125488
[Head]
31 1406.159424 809.709290 0.001431 3.281813 -2.314807 1.231935 1622.625488
32 1406.159424 809.709290 0.001431 3.455206 -2.088172 0.872783 1622.625488
33 1406.159424 809.709290 0.001431 3.627154 -1.860447 0.514359 1622.625488
[Motor_Bone]
31 1158.364380 -417.834747 0.000477 -1.440882 0.000167 -105.983208 1231.419434
32 1158.364380 -417.834747 0.000477 -1.029635 1.419330 -104.575363 1231.419434
33 1158.364380 -417.834747 0.000477 -0.583231 2.827924 -103.156067 1231.419434
[Ping_Mechanism]
31 1215.309814 -425.813843 57.780659 0.000103 -0.000053 82.120995 1289.043823
32 1219.673096 -433.021790 44.731812 0.000103 -0.000053 82.120995 1295.033325
33 1224.599365 -437.478912 27.021328 0.000103 -0.000053 82.120995 1300.677368
[BN_LookIK]
31 193.241119 1380.371704 -0.002861 0.000000 89.965736 -31.038179 1393.832153
32 193.241119 1380.371704 -0.002861 0.000000 89.965736 -31.038179 1393.832153
33 193.241119 1380.371704 -0.002861 0.000000 89.965736 -31.038179 1393.832153
[bottomMouth]
31 -435.092926 615.759399 -0.000954 -0.000022 0.000016 73.527184 753.966492
32 -435.092926 615.759399 -0.000954 -0.000022 0.000016 73.527184 753.966492
33 -435.092926 615.759399 -0.000954 -0.000022 0.000016 73.527184 753.966492
[L_Mouth01]
31 554.440979 7.658243 838.222046 150.204178 23.759130 109.605339 1005.027161
32 554.440979 7.658243 838.222046 150.204178 23.759130 109.605339 1005.027161
33 554.440979 7.658243 838.222046 150.204178 23.759130 109.605339 1005.027161
[L_mouthFront]
31 551.629089 934.514771 339.150421 0.000081 2.804060 79.119301 1136.941284
32 551.629089 934.514771 339.150421 0.000081 2.804060 79.119301 1136.941284
33 551.629089 934.514771 339.150421 0.000081 2.804060 79.119301 1136.941284
[mouthGun]
31 55.332661 1627.420898 0.000000 0.000023 0.000009 -11.038128 1628.361328
32 55.332661 1627.420898 0.000000 0.000023 0.000009 -11.038128 1628.361328
33 55.332661 1627.420898 0.000000 0.000023 0.000009 -11.038128 1628.361328
[R_Mouth01]
31 554.442383 7.659197 -838.223938 29.795891 -23.759109 109.605331 1005.029541
32 554.442383 7.659197 -838.223938 29.795891 -23.759109 109.605331 1005.029541
33 554.442383 7.659197 -838.223938 29.795891 -23.759109 109.605331 1005.029541
[R_mouthFront]
31 551.629089 934.514282 -339.151367 0.000029 -2.803930 79.119133 1136.941162
32 551.629089 934.514282 -339.151367 0.000029 -2.803930 79.119133 1136.941162
33 551.629089 934.514282 -339.151367 0.000029 -2.803930 79.119133 1136.941162
[TopMouth]
31 461.269867 -56.106091 -0.008583 -0.000059 -0.000268 92.025169 464.669525
32 461.269867 -56.106091 -0.008583 -0.000059 -0.000268 92.025169 464.669525
33 461.269867 -56.106091 -0.008583 -0.000059 -0.000268 92.025169 464.669525
[weapon_bone]
31 -987.239868 1448.372803 0.001431 0.000000 89.965736 -31.038221 1752.833740
32 -987.239868 1448.372803 0.001431 0.000000 89.965736 -31.038221 1752.833740
33 -987.239868 1448.372803 0.001431 0.000000 89.965736 -31.038221 1752.833740
